<!-- isso aqui também não é importante -->
<svg width="596" height="639" viewBox="0 0 596 639" fill="none" xmlns="http://www.w3.org/2000/svg">
<path fill-rule="evenodd" clip-rule="evenodd" d="M243.301 0.559271C305.285 4.20378 353.486 47.8952 407.162 79.108C468.436 114.74 548.935 131.347 578.777 195.641C609.364 261.541 593.349 343.089 559.536 407.395C528.444 466.528 458.998 487.865 404.675 526.756C350.873 565.274 308.58 622.983 243.301 633.795C172.284 645.558 87.8942 639.197 37.7749 587.526C-11.5604 536.663 2.27296 454.359 0.541569 383.521C-0.720723 331.876 19.1241 285.741 29.1602 235.065C41.0863 174.846 23.4196 104.311 64.8151 58.9789C108.087 11.5919 179.24 -3.20734 243.301 0.559271Z" fill="#EC9D75"/>
</svg>
